<mxfile host="65bd71144e">
    <diagram id="dMXfRTS8q5bYIZOHiwJy" name="Page-1">
        <mxGraphModel dx="1691" dy="579" grid="1" gridSize="10" guides="1" tooltips="1" connect="1" arrows="1" fold="1" page="1" pageScale="1" pageWidth="827" pageHeight="1169" math="0" shadow="0">
            <root>
                <mxCell id="0"/>
                <mxCell id="1" parent="0"/>
                <mxCell id="6BdkaVAcVr7eQR7Y4JyL-1" value="&lt;br&gt;" style="shape=umlLifeline;perimeter=lifelinePerimeter;whiteSpace=wrap;html=1;container=1;collapsible=0;recursiveResize=0;outlineConnect=0;labelBackgroundColor=none;" parent="1" vertex="1">
                    <mxGeometry x="40" y="40" width="120" height="220" as="geometry"/>
                </mxCell>
                <mxCell id="6BdkaVAcVr7eQR7Y4JyL-3" value="" style="shape=image;verticalLabelPosition=bottom;labelBackgroundColor=none;verticalAlign=top;aspect=fixed;imageAspect=0;image=data:image/png,iVBORw0KGgoAAAANSUhEUgAAA/wAAAFKCAYAAACgrVS6AABgZUlEQVR42uzdeXxcZd338d/vzCTN1jVd6EYBZStdKEWEG2koS5c06YYBZBGBLrigoqi3G7W3iggqKKAkadnXBiht0rRQaJoCsiWBtraAKIuIrN2TJpmZc/2eV4uPihRoM1nOmfm8/3oe7noy+V7XXOf6zpmcExUAgTTuobkHm+9uU5HL10wuX0oiAAAAAPaFEgEQPCcunzXRRO42k16mZqLeT0+aOGj+fJ3vSAcAAAAAhR8IoYLlsy8xs6tEJPJf79Zqzco9u3b8b7eSEgAAAAAKPxASk6sv7tYkLWUi9sWPfsfqX2NRnfHkqWXrSQwAAAAAhR8IuBNWzBkoZovV7LOf9G9NdKen/oW1k2+8m+QAAAAAUPiBgDppxUXHxC2xWE0G7cv/zlR/42UN+l7t+PkJUgQAAABA4QcCpGDFheeKaZmZZLXxHbw617JPX1547bukCQAAAIDCD3SxeTbPW73izSvM3HeSfxfb6yLeaWsmlz9DsgAAAAAo/EAXOWXlnJ6xhLtbTCa13ztZW0X8r66ZfONCEgYAAABA4Qc62fHLv3yoZ4mlKnZIx7yjtXTA/oO+XnHE/BhpAwAAABR+AJ2g4MHZk83JXWLWs0Pf1KpPRjIjn1918g1vkDoAAACQvjwiADqh7C+ffalzUtXRZX8XMzs2EUvUj1sx6wSSBwAAANIXV/iBjiz6NfOyrOWNcjE5p9Pf3CoJEflW7eQF1zISAAAAAIUfQDs56ZGLBvsxf7GZfaaL3+W3D+jVfU7FcVc3MyoAAAAAhR9AEgqqZx1rqveL2cBAvNFVn8uMtMxcOeG2VxgdAAAAID3wN/xAOzth+ZzzTHV1UMq+vP93/Ue2+N3qxlfPmcAIAQAAAOmBK/xAOymxRZG3Vqy8Us2+FdTXaKrOU/nR6ollV6iqMWoAAAAAhR/Axyio+UYva915jzgLxRV0VV2c6N77vMc/d+UORg8AAACg8APYg3Erv3K4JmJLzOTgUL35VV9ISHT645P/8CKjCAAAAKQe/oYfSMKJK+ZMsUTsybCVfXn/7/oPi0j8mYIH50xnJAEAAIDUwxV+oI3GVc/+nqlcrmah/uDMdv0CapefOHHoZfN1vmNkAQAAAAo/kJZKnrgk+52tjQvN7Aspthqs6J6XcdayE/6whVEGAAAAKPxAWimonjXEVB4Qk7Gp+PuZystRLzKzZmLpWkYbAAAACDf+hh/YS+NWzD3OVOpStezvoiYHJXz3x+NXzDmLEQcAAABCvr8nAuCTfa76wgtU9Q9qkpkuv7PzvGsi3QZ+p3b8/AQzAAAAAKDwAymlxBZF3lmx8tdm9o10/P1NtTYrEjl95YQb3mE2AAAAABR+ICVMXHFJn2ZrvEfMTknvVULfiET0tJoJZU8xKwAAAAAKPxBqJ1fPHR5Xt1TMPkUau2/mF/M8/VrtxPJy0gAAAAAo/EAoFVTPLTb17xCT7qTxoRVjQa5lf2154bWthAEAAABQ+IHQGLdi1g/M7Gdqynvjo1eNp9XktNrCBX8nDAAAAIDCDwRaUd2cnO3vuBtF5AzS+GSm+k7U5PSawvJa0gAAAAAo/EAgnfDgl4d6Lr7ETMaQxj4sHioJMflObeGCa0gDAAAAoPADgTL+oYuOT/j+/WrWnzTauorYnT36RWZXHV22kzAAAAAACj/Q5QpWzJnlzF2vJpmkkfRKsi4jI2PGI6f84WXCAAAAACj8QNcU/Zp5Ub/5H1d7Yl8jjXZdTrao551VO6l0BVkAAAAAFH6gU5388Ffz47HYIhE7iTTan6k6FbmsdlLZ5apqJAIAAABQ+IFOMW75rOViMokkOrr4y5I8y/7i8sJrt5MGAAAAQOEHOlTBg3PGm+9WkUSnrS4vSjRzxppTf/88YQAAAACdzyMCpAMzU/H9K0miM0OXQyURe2rcirkzCQMAAADofFzhR1o44cE5Z6jv7iaJLlpoVH9x4qRBP5qv8x1pAAAAABR+oF3MqZuT8cK79ryYfYo0upCnD2VL3hcenHT1ZsIAAAAAOmELTgRIdS++Z3Mp+wHgbEKLNdYXPDT7SMIAAAAAOh5X+JHSjn/su929HVv+omb9SSMwq06zijendnLZ7YQBAAAAdByu8COlRXds/g5lP2BMss3cbQUrZv+uoGZelEAAAACAjsEVfqSsgpqv7Gctsb+ISS5pBHQBUn00kplTsurk375NGgAAAED74go/UpZric+j7AebmZ0QjzU1FFTPOpY0AAAAgPbFFX6kpJMfnn1IIm4bzISvjIeh+KvEVPTrayaXl5IGAAAA0D64wo+UFI/bLyj74aEmmWJ2wwkrZi+cXH1xNxIBAAAA2mGfTQRINQXVs441kSdIIqyLktW5SObMRyf+4XXSAAAAANqOK/xIOab2S1II8fiJHq0uXl/w4JzxpAEAAABQ+IHdCqrnFovpOJIIfevvZ75bOW7F7G8RBgAAANA2fKUfKaPEFkXeXrFyrZgdQRop5Z5u0V4XrpzwqyaiAAAAAPYeV/iRMt5c/uB5lP2UdEYsse2J8dVzPkUUAAAAwN7jCj9SQskTl2S/s7Xxz2Y2hDRSdLFS2WoSOXvN5NJq0gAAAAA+GVf4kRLe3tL4dcp+ajOTXiauclz17MvMjA8rAQAAgE/AphmhN3HFJX1abMdfdxVC0kiThcuTyoyId+7Dp5ZtIw0AAABgz7jCj9DbaY0/pOynF3NS3Bq3p0+unjucNAAAAIA94wo/Qu2kR746LBGLvShm3UgjDRcwTxvF2fm1hQvuJQ0AAADgg7jCj1DzY7GfUvbTlznLM5GKE5bP+mWJLYqQCAAAAPBvXOFHaI1/cO7ohHMNasYHVxBRfXhAr7ypFcdd3UwYAAAAAFf4EWIJ535J2cf/58TqKPsAAADAv3GFH6E0/qEvneQnoo+QBHYvZKq/rZ1c/k2SAAAAAP6Nq6MIHTNT349eSRLYPR88KaPsAwAAAB/GFX6ETkHNnL7WImcF6TU5cQM9k/9ldDp5AVO9bfWksvNU1UgDAAAAoPADHeKEFbPnq7PLSKKzyr5U9J804QsVerpPGgAAAMCH8ZV+oJ2smVj2k10llCQ6oex7UnloP+9syj4AAABA4Qc6voSqWv9e3c9TsTrS6MhVSx/KcdklZUeXxQkDAAAA+JiOQgRA+zphxZyBntnTZjaENNqXqdbu1ytvMo/fAwAAACj8QJc4rvqiMRmaeFRMckmjnRYr1SclK+PU2vG/byQNAAAA4JPxlX6gAzxReMOznsrZpsbd49uj7Iuul6ycyZR9AAAAgMIPdLnVkxYsUfV4VF87MJW+Is1RkgAAAAAo/EAgrJlUfqWo3UISyTZ+G2gttpAgAAAAAAo/EBgD9h8yR1UfJYmkS//UghWzLiIIAAAAYO9w0z6gExTUzOnrWtxTanIQaSTR+UV3ehEdWzux7AXSAAAAAD4eV/iBTlA7vuy9TIsUi+o20mg7FcsR5+4s2TAvkzQAAAAACj8QCI8Ulm70xM4QEZ802s5Mxrzz2huXkwQAAADw8fhKP9DJClbM/po5u5Ykkij9auapN6F2UvnDpAEAAABQ+BEyvarKz/HMXfL+TNV/zVX717y1/5i/qv9ZB9//d//+b579x1zX9//v+p//G/v3sezfP+tDxxSV6zZPmfu7ZH+3ccvnXCfmvsooJ1P65R+ZGd1GPXLK9ZtIAwAAAKDwIyTyH1vY3bb4L4nYgECVTFFfPK9oy5RZK5I5TkHNvKi0vFFtJqcy2kl5YE3hghnEAAAAAHwYf8OPQLJt7kdBK/vy/k3jIp65ewasKDsimePUjp+fyIh6JarK3eaTM33c8llziAEAAADYU38BAqbnQ+UHRmLueTHpFtTXaJ68GsvI/mzThC++k8xxxlfP+ZTv+U+J03xGvo1jIbrTafSoxyf/4UXSQEfofvi0zwbxdXnR3D9vW3/nlnQZh9zDZozw1OUG/XW2ZnnbY88ufp53DgCAwg/sQX5V2f1mFoavaT+xOTJ0vBQWtiZzkJMenDsu7vyVasKj5tq8kmnDYf302LKjy+KEgfZUUlISqX6hORHIaW+RmY1/WrI4Hcah28hpp0TMf1A12N9MNBMXdVq0fWPlct49AIAg4Cv9CJRe1WUFISn7uxzXy/39pmQPsmpi6RpPvYsY/aR22Ue9+K78nCCA1JM/5pRBGerfEfSyv5vqZZR9AACFH9iDeWae5+TqUL2BzL7Qu7Lsp8kep3ZS2U2mciWzoO2c+JeOf+hLJ5EEkDoKCuZFW/ysu82kf/DLvi1tWrf0ckYNAEDhB/bgd9VlF4jZmLC9bhX7Ue+qsjOTPc5JkwZ/31SWMBPautdW9f2MWyeuuKQPaQCp4elNDZeLyQkhWID+3JTV61xVNUYNAEDhB/5L/mMLu6vTn4W2bKrc1L26/NhkjjFf57usSK+zVfU5ZkQbmQ1uth3lBAGEX/YRRcUq7tIQvNTGuBedIU/fsZ1RAwBQ+IE99bSAPoZvrznLynBuyX7LFgxL5jArJ/yqyXnRqSr2FrOirZNJZhasmDOLIIDw6jl62gGeJ7eoauBvLuwkcn7suSUbGTUAAIUf2NPG7qHyA8XcN1KgaPZvMVeV/9jC7skc5tGJf3g94mVME5VmZkcbh8LcNSc/PPsQkgDCZ3hJSWbcd4tEpHfgy76zK5rXL7mXUQMAUPiBj5qEMferID9zf59+F7MR/lb/nhJbFEnmOKsm3fC0ed75psbfg7ap8UtuPG7fIQggfF59seU3qvaZwC8zKo8UDc/5ESMGAKDwAx+h77IF49RkZkq9qcwmP7xsy2+SPc6jE8vu8TQyj1nSVholAyBcckcUn65mXw182Tf9m5chZ1ZUVPiMGgCAwg/swTwzz5m7JiWrpsnX+ywr/Xqyx6mdVPZTVb2L2QIg1WWOnn6IiCwIftm3lgyNzGysr3qPUQMAUPiBjxDWx/Dt9abQ6W96VJdOSPpAWYMuMNWnmDEAUtaxJdkZzq8Qte6Bf63qfXnb+gfqGTQAAIUf+Ai7H8Nn+tNU/h1VLBI1WZRXfePwZI5TO35+S0ZmzjRT/RszB0Aqym7ceZ2IjQr66zTV63eur7yZEQMAUPiBj9s0bfV/KGb7pfwv6qRnhp+oGlhT2jeZw6w6+bdvZ0i0WD1tZPYASCU5I4rO91QvCP4r1ScOODTrW4wYAIDCD3yM3Y/hE/tmuvy+KnZgc5M+INXVST2JYNXkP6wT551lqo5ZBCAV5B42Y4SoXhf4F2ryVla0+fMbKypijBoAgMIPfNyki9lVqfIYvr3+nc2O7+NeT/pmVLWFpZWqwuPmAIRfQUmeZCbuVbGcQHd9lbh6UrLp2Yf/waABACj8wMd4/zF8dlpa/vIm5+RXlv4k2cOsmVT+G1FdyGwCEGY5m3eWi9mhQX+d6ssljeuqHmPEAAAUfuBj7H4Mn/OvTucMnOplfZeVnZ7scQ7rp18WldXMKgBhlHtE0VdV9Mzgv1K9rWlD1fWMGACAwg98gmurF5wvIkelcwZqps7k5j5VC45J5jhlR5fFs7X7aaryF2YWgDDpOXL6WFP5ddBfpxN7rik3ay4jBgCg8AOfIP+xhd3F7GckISJm2SJuSe8HbxyazGEenHT15oRkFKnKVkIFEIqyP3par7j6FaoBv4+L2WbX6s2UJyuaGTUAAIUf+KS909bED9LiMXx7v5ncT+KJKqlZlJfMYR6f/IcXRbVEVRKECiDoEs7drGYHBnt5Fhcx/ULrnytfYcQAABR+4BMMWH7TASJyCUl8kJqN6tO09a55Zkm9D2snlT8sKheTKIAgyxlZ9B0Rmxb4jZEnP9y+oeohRgwAQOEH9kLMj/8q3R7Dt9fMin63rPyaZA9TO2nBDar6WwIFEETdR089XkQuD/6aLIt3rK38JSMGAKDwA3uhb1X5CWn7GL69pGYX5y8rS/rGUP0nnfptFV1OogAC5ciSfr65e1QkGvDV+IWsnlvOU1Vj0AAAFH7gE+x+DJ+5a0jikzmT6/pUlZ2SzDEq9HQ/R7LOFNUNJAogEOeBefO83ETL7WoyONAv1HSHZtqMTY8/voNRAwBQ+IG9cM2y8i+l+2P49paaRc2kIu/B0sOSOc7ywmu3d4u0FIvKu6QKoKtddd8zPxa1CYHu+mam4p3XWF/1AiMGAKDwA3ujZlFeROTnBLEPpV+sV2ZcqgY9fEt+MsdZOeG2VyKR6AxRbSVVAF2l28iik0W8ywK/9nr6i8Y/LVnMiAEAKPzAXurTtOWHPIavDUw+1dzSunj4hkWZyRymZsINj6u62WkdpYpjQgFdI3/MKYMyVO5UDfg+w/ShS2eM/TEjBgCg8AN7afdj+FS/SRJto2YnvPnKlrJkj1M7aeFtJt7laZmh2hMZGTk/YDYBna+kpCTS4mfdbSb9A931RV5tysv6wvz58/lwEABA4Qf2VszFrxJnWSSRTOmX83pVlSZ91WnN5NIficr9adb2b86xnPGrTv7t28wkoPNVvdh0uZicEOyyr80ZnjdTnqzYzIgBACj8wF7a/Rg+Z58niXboraLzey4rOy257qvWo593rqg2pEFkvnj67TWTy89fXngt9y8AukDO6OIidfqdoL/OiMrcbWuXPsuIAQAo/MBe4jF87Vz4zTRiclt+9cKjkzlO1dFlO6OZkamm8o+UzUpla0S8wjWTyn/DzAG6RtbhM4eps1tVVYP8Ok3sdzvWVd7GiAEAKPzAPrhm+YLzeAxfe+9MLdtcYml2dfmQZA6z6uQb3oh6MtVEd6Ze25cXoxn62ZrCsoeYMEDXGF5SkulFY4tEpHfAF4zHDs8cfCkjBgCg8AP7omZRXsTZ5QTREaVfBmY5q5SHbs1NaogmLqiPROSLpmap0/V1eWbU++wjp5T/mYkCdJ1XX2j6tYocE+il1ORNy8oqqa8vizNiAAAKP7AP8ndu/QGP4evAYmt2ZJ9Yy53zzJJ6z66eWH6fqv4oFTIx1d+cOHlQ0cOnlm1jhgBdJ2/k1BIV72vBXi8k7iTy+Z3PVLzFiAEAKPzAPhiw/KYDTOQSkujoHatNvW5Z2a+TPcyaSQsuF5XbQ5uDaqsfkfMenVz+7fnK47SArtT98NMONrOFgV8+Rb7e8qclf2TEAADpJkoESFbcj10pJjyGr1M6v3yz97LSDVumzF2QzHFyLXtWk7YcJGb/E7Ky/2YkojPWTCh/itkAdLFjS7JdU8u9ItY9yC/Tqd7cvK7yBgbs3/LGFvVNtMrB0YgMEJO+Yprvm+SrJzlqluFUM9VJpphEPc80LL+XE/NVvLgTiXlqMROJqelWEX1PnLyX8PQ9idqrUz/d7ZWKigo/lcY0f8wpg1oTWdd04P5Dxdv7G3I6kbua11Xel8zPHF5Skvm3F1uuMJH9xUxl12t4fy+g7/9Vn9v9/zdRFXv/tdmuf6f//He7/rv+c/6aqGf/ev1qu/63/7rB6K7//fv/zrNd/7d//nc1T534vkqrp9aqpq1mslU8720Re8eJ/MOLywvDRmS9tLGiIsbKshfz9Pjju8v2QYMSXmxgzNP8iLk+ZtJdTfPMLEvFZTr1omIS2T12pu//GaozE8+ZaOTff5bqnHme7hp+2/X//td/3/XffDH11P7jPGDiEiZexOT/XypSZ55T2/Xvvaj3wLaGB+qTXltHFM1Tz0u+X5trlz+/3b6ucp6qhmcRRzD1Xl76OU3IoyTRiaXfk7gnMnHTlLk1yRxncvXF/XZqy9NmdkAour5YXaRbxvRVJ9/wBrMAnaWkpCRS/UJzIpDvCYvMbPzTksVd9fOzR0xZ6KleEPCy39C/d5/jX6u9pSVd53DOZ0r20+aWcSpSYJ4cJc4dIqp90vo8KhpTs7+KyAYRedQypLapoXLdro1xWH+nzJGTDs2Q6AuBydjJj3duqPpZMsWweUfvxWpycvDnkyRU9C+i7jFfbJXXLbeGPx8SKSiYF21457mxftQfJ6LjRG2MmgwO7pog5zb9qXJRUuvtiCnNqhqYi6CN6yo9Cj+Se3OYaf6y8mfEbCxpdHL2KlsSqsfumDInqZvVjV8x+4iE2R/VpEew277dqVlDLqwdP7+F0QeFv+sLf87IqeepuJsDvlBu8v2MsS3P3/9aOpZ819pydsTZuaIymnfyXr2j3lOTRb6L3NK88YGnKfxdV/h3zV9raan2xMaEdH9sorpaxLtl5zs975W3b2tKl3fRvHnzvCvuf+4kT93ZnrOZogHfX35g3MSpp99sWld5baoVfv6GH23Wa/mCL1H2u2qjL70zTJb1WLEgqas0NZPKN3ienikifjD367pr8f3BmskLz6bsA8GQe9iMESL2+0Bv3ET9hHpnplvZzxw9/ZCckUV3S0vL3yNmv6Ls79Os6WtqX/EiiadyRhWtyx41dSaZdL5uY6Z+WluaHw9r2Zf3/+JAVWS8irs5t9/mv+WNKvpfGXBubiqP27CC87JyR0792lWL616Lir/SM/tSmMr+++Mmnpj9LntkUco9dYzCjzY2xUV5Eed+ThBduTexT0fj7v6xdaUZyRymdmL5cvH028FbeWWH58m02knlv2CwgYAoKMmTjESFiuUEfIH8fuv6JQ+ny7D0HD2tV+6oKeVR529UkTNULMJkTeL0YzLSM3dfzoiiZ7ofPu2zJNJJ83jk9LEZvntcRA5KncmkfczkF3kDtrycPar4tFQct7wjii98d/Pmv4q4a9V0SAqU4+9nH1F0Y0HBvCiFH2mtd9OW74vJQJLo8k1twctvSmmyR1kzqfy3oloaoBPkXzMscmztxPIqxhgIjpwtLWUidliwl0W5d+f6qqvSZUyyDp86Lu67tWI6i6Lf3qciOdqP+o/ljiz+SSpt/oOoxxFFExKSWG0m/VNyt2bS3zO7N2dE8R27PzhNibVn5rCckVNWmmcLVGxQKo2X58n5T2+qf2Dg2KIcCj/S0n7LFgxT1W+RREA2JCLn96kq/0HSx8ka9DVTeaTLT4oqj2Rr3jGPFJZuZHSB4MgeNfXLavaFQK+HJhub8rPPT5cxyT2i6KtexNWo2v7M0A47x0ZFbF79pvqVvceW9CSRDiiOw4vOSkSkSkTyUn4+qZ2VvaWlNuczJfuF+ffIGTV1UiQSW6eip6TqWHkqU7bH9RH5zPR8Cj/STsz8q8QZj+ELEBP7WZ+qshnJHKN2/PyEl5X7eVF5sat+Dyd6nZc1eNKDk67ezKgCwdFz5PSx6tzVAV8It8ci0RlSW9GYDmOSM7r4x+LJdbv/7hQdP71UTmyNNz+aP+aUQaTRjmV/dNG3PM9uV5OMdPmdPbOjpKX5id5HTxsaxtefN7L4K2JWFba/0W/bG9+OzW3xH+s9tmh/Cj/SRu/lpZ8TkxKSCBbd/Xxau73nitKjkiv9v90qkUixqXRu4fY0rhGd81hh+cW14+cnGFEgQGV/9LRecfUrVKVbcPdkZk7t3NjaB/6cDmOSN2Lq99XZ/zE7O/tcKyNbElmr5diSPqSR9HtWs0cUXxlx8mtVTbunhqnIAbFW91De2KK+YXrd2SOnfNPErk+vPx+yw1rj8sf3b1hL4UcaLM7q6zUkEVg50YQs7VN1S1LPOF0zofQlTyKn7SrhnXTWe1fETq6dWF7OEALBk3DuZjU7MNCbZ9WfNa9ftjQdxiN75LTPO/G5aW7XOTi3qXnx8JKSTKJom7Fj52R0H1F8q6f2nTTfWR9mca0My/0h8oYXTlPTX6fjSKnJYMlMPJo3asoJFH6ktPzq8vN4DF/ATx27FiRrWTqwrjSpm4zUTi5draJf6YSyvzaa2e0zayYteJTRA4Ina1Txt0VsWpBfoxNdfunMsT9Ji7I/fPoxKu7WdLwiGjDjXnm+uYwY2mDAubkbY/+oNE/OIYz3vzL+zJaGHwT9ZfY+etpQi0ZuTus/ITLr5Zw8lDdi2gwKP1JTzaI8MbucIELhqNhberuZJbUhrJ1UtkBFOuyTXFO9r1uk1/GrTr7+NYYMCGDZHzHtfzyzKwL+Ml/OlO5nz58/36X8gIwoHuB5iSUqls3sDMAGWuW89z8Qw147sqRfTr+tNZ7IRML4wI7oRzljikYH+RXGW/xbdxXedB8pVc1y4t+bPbp4LoUfKad307b/5TF8ITp1mM3oXV2W9GOpTpw8+LuiWtW+Rd9MVeevmVRWsnLCr5oYLSB48sYW9fW8xD3v36E8oOuc6M5Yhs7Ytv7OLekwJjmeXC0q+zE7A7SJdu5nPcZO/xRJfLJuhxQfmOs3P65qnyGN/yqRJhnqB/eeHFnDi84ylRMZqf9f+sXznN2QO7L4JxR+pIz3H8NnfIoduo2IfLtndXlSj6ear/OdZmV8QVTWtc8qKU0RzyupnVz+E1U1RgkInnnz5nl+TG5X0yFBfp3Ot9nxhsp1aVGWjiw+NeiPREzPjb9m+a3+70ni4/UcPe3IaKb9UUQOJo09MyfFgbwp3LEl2V5UrmSE9jhq83JHFpWWlJREKPwIvRZzV/IYvpCWfnOlvarLCpI5Ru343zdmRr1iUXk7yZfzWsSLHL96Yvl9jAwQXFc90PDDoH/l1kyuadlYdWc6jMewgvOyogmhVAa29duE3COmnkkQe5Y7unB8wvdr+XbKJ0wjVXWR+LcCN36NzbN337AOH2VO9Qst9+5apyn8CK1+1QuO98xOJ4mQnkCcZKiT+/tW3pTUp+oPn1r2NzWZriotbTyRPZor2Z+pmVi6llEBArw5H158kvgW9K8prvlM/ti0ubv3u1s3f0fUPs3sDPTJ9uqBY4tyCOKD8kZOLTHfW54Wz2tvj1LmyfQg3bF/eElJpnnyXUbmk9j09zZvXtlz9LReFH6EUjTDf11E3yaJEO9DzPo4jVftX3VH72SOU1u44ElRuWCff75o+aH99OTlhde+y2gAwZUzdsZAicidQb4Ls6m8IU0ZJbW18xNpMSgFJXnq7BJmZ9BPtLLf9laZRRD/EYnK5525u1WlG2nstd5Pbn4uMH8r//KLTadxdX+vz06fi5v/qHgaofAjdN48de7fxLNp4mkLaYR5HbJDGqXxvrF1pRlJlf5JC+4yT/9vL0/2CfX04trC8jllR5fFGQQguEpKSiIai98tYgMCu4yJxiLxyGlNLy9+J13GJWtr85xdJYAZGoLTrOqlYXmeeuc0fhmd1o9wa6OIxAPzGNSIeRcxIvsw5U1GqEkGhR+htHnK3Kc81S8ZN1kL+W5Exv/1reT/DnTNxLKfiOqij9/4yGYvkphYO6n8OoIHgq9q486fici4IL9GT+TiHc8veSqtNv9O2HCHpt/a0Kc31xWSBJJc6Y4LwqvofvhpBwf9nAAKP9rZe4Wz7xG1H5BEyN/wJrN6V5V9L6lNjaoN6JX3JVV95iP+wYaoecfUTLh5FYkDwdd99NQpqvK9IL9GJ7qwcX1lWTqNS96oKSdwV/OQnWNVLiQFJEdHDi8pyezqV+F7rWcwFhR+pKEtU+ZeISJ3kkTY2eX5VWVTkzlCxXFXNzvVaar69w+cpjyp9Lv3Pq6msOyv5AwEX9bhM4c5379VVTWwK5bpM81DDvhq2q3UpucwQ0M3ZoVybEkfkkCb675Y5qsvNnf54/nU0xJGg8KPNLU5MvQCp/pHkgjxycTEM5E7ey4rOzKZ4zw6qexNiUixqDTJ+1f+f3HixMHTH//clTtIGQi+4SUlmV40tkhU+wR38yvvdsvyTpPl17amV3E0FZOpzNKwlTWJdt/ZMoUkkFQ583VMV/78niNnHiRioxgJCj/SVWFha8KLTjdPXiWMUO8mcyMmlTkrSgcmc5jaCeXPeSpnqydn1U4u/8F8ne8IFwiHV1/YeZWKHBPYZUrUN8+dsaVuyevpNjbZI4uP5bnl4eTMppMCklr7InpAV/78mCYmMgoUfqS5xsIL3s2MaJGqbieNUJf+IVkJWSpPLMpO5jCrJy1YUjtpwV0ECoSpUE77vIp+PdDFybPvNq2trknPzZmbwCwNrZPnzZvH/hptX/ucG9ql648ZhZ/CD4i8PWnOBk/0dBP1SSPMpV+O7r1p6227vz4KIC10GzP10575C4O9NMk9LWurfpO2g6ReATM1tHpec//aMcSANr/9Vfbvqp+9+8Mqs/GMAoUf2O3dotkPep5+gyRCfmIxOy2/esEVJAGkvmEF52VF4+5eUekR2LKv8qed7/RO27ud775Dt9lxzNbwavUSfGCDJPZl2mVX+C+vbBgR5PMDKPzoApumzL7eif6GJELOue/2qSo9jyCA1PbelveuFZXRwd3p6lY/4s2Qt29rStcxemVD/EhVzWK2hlfUybGkgLYyzwZ22dz1hQ8bKfxIJUNW1V085JG6HyV7nFOLen3Xqawg0ZCfYEzL+laVn0ASQGrqPmrqF8V0VnDXIDNP9ZzWZ5f+Jb3bYuIoZmvYz6fCGKLN1CS3y57Fb/Y/jEAKnlaIIP3MM/PKa+qvNrOvm6rtV1P3wlvjj763rcer0NN9qb79jD7+zj+K2BEkHNITjFimL7K4X3XpZ98tnMtz9IGglwp1E7JHF/ffm3/rmWT6ZlcE+2YdNn/H2qXL0n1cPZMxXT+35A01CeVYOJEhnkhhl+YndpAcc3YPefqO9L25seqL4svq8LxeN1JUA1N2X31V+ojIW52/F+z69ceJVHsifw/leVm0SMUGUfjRpQasXZu7oKb+bjUrkvf/flujKrfuV9Pw6lvjj6pr84ELz9mesfymorgff1rM+pF0SM/PZvnOl6phNTcd99r487eSCBDorcVFntunjVyQN0lVTeuX/Z8q9w81kSO7PAWz55vWL5sbxvx6HFE0wfe6tvCrqua1bB3dKPJous5j59zjzRuWXRSW15s7oujrIhKYwh9pdN07u/APLynJfPXF5sO6fO5E9Jrm5ypXhnHe54wqelhMAlf4+Up/GunzxHODI5tij8o/y/6/zutOsiPilvapWTckmeO/Pfn8Vy0amSYqraQd6s3mYdub4hUFNTV8IAigExYd/UuG552rqkYYu8viIaSQEiN5KBmgzQUtM5Hb2T/zjT/HhqtJBumn4HwigvQwrObZI3N2+k/pR31V0NnALGtdOmDt2qQWmC2TLnxCPbmAxEO+TTE7ZW3TS9eRBICO7frSJInojG1rl/CNIhHJPWhGfzHrRRLh5zs+uAkT53mB+nqRb35ep2dgbiQzgcKPkBpQUzclbu5REzf440uejIluit+e7DPZNxXOvVM8/THJh3xxMJubX1V2KUkA6CiqcmHTC4v/RBL/zCMvTklMlXOoCmOJNoubdOv0wi98SEXhRygNqnnmaxEnS9Tc3n1SaDZ9UE39Vcn+3M1T5vzMidzDCISbE/tlr2VlRSQBoN3Lrcivm9ZWcZ74zzXXvE+RQmowtYNIAW3VzddOv0u/mTuY5Cn8CJF5Zt6gVXXXqJNrVSyyT5PC7NtDV9Wfn+xr6JmX+SVTeYrRCPGG3MTzzO7qtbx8FGkAaLeNpUjN5MOyv0cSH0pmCBmkyPlTdCgpoK2c+J1f+LnCT+FHePzzTvxL1OwbbV9o7IYhjzSMS+Z1vDb+/JZYtjfNRP7GqIR6Z57n+VaVs+ym/QgDQDtsKl/fGck+o6KiwieN/yqJTiiJKTPRrZcUlOQRBNrCj0YjnV4KzfiGEYUfYZD/WMOgPd2Jvw0nqkwT//5+q+qSevM3nTz77YyIFKnoDkYn1BuXodkWXyJPLMomDABtX0qk1SJymjxX8S5pfJjzjMKfQjK3JxhPtHGx1E7taL3HlvQUlR4ET+FHwA2refbI7FZ7+iPvxN+Gzw8yRKqG1Tyb1B2D3ymcu15FzzQVxyiFeaNux/TatPXmZG/qCCCNNx2mX21+rvIZkvjIlXYQGaQOTcQZT7RxrXSd2tEaGxv3J3UKPwJub+/Ev88nK7PD4paoKKixpJ7J/l7x7Goz/RYjFfYTkJ3et7r85yQBoA3KGjdULiSGjznnitefFFJH1Hn9SCEkzA/WxYxI515cycrI5NsoFH4E2T7fiX+fS7+c8hfXcG2yx9laPOe3pvI7Rizk50Rn3+9VVX4OSQDY63VD5alhh2VfTBKfqC8RpJCIUfjRNr5aZ/64RMRR+Cn8CKJk7sS/79xFQ1fVJX2FflTuId821ZWMXtgXDregX/WC40kCwCfTt7Oas0/bWFERI4uP1ntsSU8VyySJFGIUfoRklTYZQAoUfgTMgLVrc8tW1T+QzJ3495VvcuWQ1Q2TkzlG7fjxid7drERVn2cUw7yJkW6+c4t7PlR+IGEA+OilQhJ+Qk/f/FLFG6TxCedYiXN1P/VqFIUf4SiEjsJP4Ueg/P878XtixZ162hKLOHP3DK1ZOyKZ47x86txtEYkWmch7jGaYd/LWLxJzVQetLO1JGAD2fN7QTS153gaS2AuutTchpNhpUowxDUshMnVpPle5fwiFH0HRAXfi37fNm7PuviUqD3p8bVILwztFF7wsUZlhonzFM9xniOFbWmRRQU1NlDAA7GGRGJDTmriJHD5ZayLCh6cpd4pUHnOGsDRCrvBT+BEEHXUn/n0u/eYOaG2NPyAvvdQtmeNsmTz3MfNkFiMbbioyYX3Tn7kZI4CPOGdIcfbI4ktI4uNlWIRymGqbbHN8iINwrNNO8kmBwo8u1tF34t9nZscNeX1b0o9X2jplzm3O837CCIecyZf7LCtjQw/gI0q//aLn6GlHksRHc0o5TLlTo8cVfoRl/dFepEDhRxfp3Dvx72vnt7MH1dTPS/Y4Wwpn/Z95ei+jHfKNjZOr+laWF5IEgA8VfpVuCXN3y4Bzc0njIzIyoxym3IlR+RAHYcH9Jij86ApdcSf+NrT+eYMfqStJbiOotqVPry+q6DOMeog3q2IRE7u7d9XCEaQBYA/ni0OzB2z5PUF81Brq8WFIqo2pOcYUgVcwb15UxbJJgsKPTtZVd+Lf95OZqXp2y5DaZz+T1IGOO725OcOmierrjH6I9/Ni3UX8qtyHbuVurwA+vOkw+WLWqMIvkMQe1k91bLhTbkw9xhSBV7t6YxYpUPjRyfqtahidHXNPddWd+Pf5hOYk2/zE0j4164Ykc5ydk+a+GbFIsag0MgvCS82GdYu1LBlWcxMnEAAfEnHeDT1HzjyIJP5r7RTJIYVUa/wuy8yUIBBkPVolkxQo/OhEA2rqpmSIPWZmQ8J1UpP9si1WOWDt2qS+vvZu8YVr1YucZSqO2RDmTY4du60pzqO4AOyp2faIW/zusWPnZBDGf66bytXgVJvquxx3Oh9+I9ASPoWfwo9OE7g78e97yTsysil25zyzpObVpsJZlarCHd/DvriYndm7suynJAHgw0XIPvNiy1tXkMS/+cbf0KYoxhWB1s1ifPhK4UdHC/Kd+Pd5E2cytaym4apkj7N5ytzfOU/LmR0h39SL/Si/uvQskgDw35z6l+SMmjaRJP65XnoU/lSU37qFK/wINN+UK/wUfnSkUNyJf18nlblvDVnVcEGyxxmdc/BXRHUVsyTczMmNvVcsPI4kAHyg4KqqJ/6tMqJ4AGnsysPjKlsKSrhcyhQCzUmEtYfCj44Sljvxt6nkqbthcM0zJyZzjNrx4xN5kvt5UX2R2RLmySDdNJF4YMDymw4gDAAfWB5M+ueK3MaNzXZvu9l0p+KoxqKMK4K+Z4+SAoUfHSBsd+Lf9zOcZajpff1qGj6dzGH+VnT2lkTUKzLVzcyaUJf+/vFEvEqqb+9BGAA+QO3U7iOn/W/aF0PjCn8qau2WYFwR7C2aH4+QAoUf7Sy0d+Lf1wXErE+G+VXDap7tlcxxtk+a9RfzZKZ5Emf2hHpGHNHLNd1TYos4sQD4YNn13Pzs4dOPSecMlCv8KSmqPuOKgLfBDPZlFH60p9DfiX9fNzAmh8bMv7egxpL6utDWwjm1Tr25zKCQLzgmkx6u3noNSQD4r3NFhkb9u+WYs3ukb+HnCn9KFn6h8CPYzFcKP4Uf7SGV7sS/7yXPTn7J6q9P9jjbCmffZKI/YzaFfFPr7Gt9qsovJgkAHyz9dmBO89bStO6GSL0ylWBcEfCFxxMKP4UfyUrFO/G3YSM3Z+iqum8le5zNRbMvU9XFzKqQb4DMru5XVc7juAB88FwhembeEVNnsydDqohbJuOKYPMTFH5OLkhGKt+Jf5/XE9GrBtTUTUlqM6hqmfvZOSLSwOwK86beIk5s0YAVZUeQBtBGJn91qg1O9FkxWSui60xlvan8SUU3qMlGEX1BVF801VfC8ms5z67JHDPj8DRcGHlSQQrKiPAECgRb1CLM0VQfYyLoOP1WNYzuFnNVZjKENETUnBdRvat/bd3x7xQcvb6tx3nz6Lk781cuLJbWxNNmMphkQ9pVzHrEfKnKq77xmMbCC94lEWBf+2HkO83rlizey/eb5o2cukLUJgT/97KcjHj8rtjkiz8ry69tTaM10WPXnYrj6nNxDcGeo9GYSpzVJ5WxCHWQwavqCtPhTvz7vJFz1j3qS+VBj6/tn8xxNp164T8SUZkqIjtJNczzQQ6IusQDUl3djTSADnyvqZp1i35JTDeF4wXL6Nw3Xrk6vXbdyo47BSXiXD0FcxQU/pQzqOaZr5nJ0nS5E/8+7+PMhrW2xpcMq3klK5njbJs0t8GPyNmmaqQa4kXI7H/62N8XkgTQsXbWL35TIzYrPAVYvpw3vHBaGp0c2ZOloEimMq4I+CSl8FP4sdfS+U78+76Rs2MTsvnGZA+zrXDuA6JyKYGGnLOz8ytLf0IQQMdqXFv1gJiUh+ZU4emN2SNnpsU35Uy5wp+a+K40At73zTFHKfzYG9yJvy0lz31h8CPPJF3ytkyZ8xtTvZFAQz4dVC/rW11+BkkAHavp3d6XiMhLoXixqn08id1RUlLCh+gAAFD4uwZ34m87U71sUE190iXvoP3sIhGtJdHwUjN1Zjf3WVb6WdIAOtDbtzU5P3qOiSRC8orHVW9suSzl10BnjsmZenyNMK4AKPxh1m9Vw+jsmHtKTcaQRttKnprdPGDNM8ckc5z6o+fGExneTNGQXLXCnjnLEqdLBq4s3Z8wgI7TvPGBp0U0NH9GY578MG/UlBNS/YzIzExBrYwrgs1Xxxyl8OOjcCf+9trJWVY0IUsGrVk/NJnDbJ80a3NctchUthBqqCfEgJZWqcp/bGF3sgA6zpTDsq4Q0cdDUYXFIk7kTjm2pE/q7si4wp+KohmOcUXQGz+Fn8KPPeFO/O3d8WQ/TcQqh9dsSCrPHVPm/NlTOc08iRNqeKnJSLc1cVeJLeLvdoEOUlFR4Uc97xwx2R6OdUGH5Da1pOwTPZQr/Kk5ruoxrgi0aIbPHKXw4z9xJ/6OLP1u9BbXfOeujJM5zKYpc2tE5CsEGvrSP+XhZVuvJgmg42xbu+RVP6JfDdGJYnruqOKLU3IwHFeCU1HcZ1wR8P1WIpPCT+HH/8ed+DtjQlrxwtUNv0r2OFumzF0gKleQaNhLv12cX11+EUkAHadlbeXtJnJPaCq/c1dmHFU8KvUWPI9imIIyfG7ah2Br5sPGlBdN1V9s4Or6GWLWrn/rp5tiX1Xh5nydsJm7ZPCq+uffOGlsUs+KvnjKnB9eu6x8uJhNJdXwcs6u7bGs/K/bp8xeSRpAB5USL3JR3Ln/UbGhge/FqlmZMbu779iio9+sr9qZMuc+MR7YnoL8DJ8/MUSw1//MmHNxvrRM4Q+ZwTX154jvbmN4Q0zt+gGr6/7y9olH17T1EPNVnTx061m9Yy2PqdmRhBrWqWDRqFpFn2ULjts8ZdbzJAK0v21rl2zNHT3ti+b7j6iG4Nt/KodvbZHrROSC1FnrNM6f8aeeeCuFH8GWcNm+JzGCSGEp95X+fqsaRqu4MoY25JxlRE3vG1z77MFJHWfCF5taPC0WlTcJNczzQXqauaqBNaV9CQPoGE1rl6w21atCs4Hx5Pzc0UVnpM4yZxTDFNQtL8K4ItAyPb7ST+EPkf0fXdc70/z7zUk2Q5sKux/XWxJ+1a5xTeYwzYWz/65edKqoNhNqeKnZQS2Nsnj4hkWZpAF0jAMPy7rMiT4bopZc2u2Q4gNTYkOmSjFMyY12lHFFsPnmEwKFPxTmmXku1nqHiBzEsKYSO8SPx+4dW1eXkcxRNhVeWOernGvK9yVDXfpFPvfWK1sXkATQMTZWVMQimXaWSWg+IO0ZybK7CgrmRcO/vnGFPxVFJMG4IthlMBqj8FP4w6FsdcN8E5nMkKZi57eT3twh1yd7mG1T5tznqX6PQEM/H87tVVX6Y4IAOkZjfdULpvrt0BRlk88+vanh8rDn7oQ/ok1FrV4244pAi0sOH0pR+INv6OqGYjX7IcOZutTZ7CE1dUlvQDdNmX2VenoriYZ8PojO71lZ/nmSADpG87qlf3Amy8KzJrhLu42cdkqo1zU1/uwsBWXEYi2kgECXQRdPkAKFP9AG1z57sPPdbWrG02xSnDO9clBNfVGyxxlwQK/ZpvooiYZ4Y2ymEbVbeywv+wxpAB20QdiZcYGqvBOOsqwaNf+23INm9A9r3uZ7FP4UNPiQzJ2kgCCLtXCfCQp/gA1YuzZX/MT9ItaToUyHkuc8Mblr8Jr6UckcZ+MRp8eys7rNEJW/kmqImWVHfVna+8EbhxIG0P6aXl78jqoXnsfeqezn8uK3WEgvAJgnFMOUO02J21hRwVf6EWg5PSNc4afwB/jFb4ovFJMRDGNalf48S1hl/yfXD0jmOP845bxNsQwpMtGtpBrq3dR+Eo9XSs2iPMIA2t+OtUuXqenvQ7MvMJmUO6r40nCe33yu8KfeLpsxReC1etxYksIfUENq6r7tmZ3BEKZj6bf9M3e2LhlW80pWMsdpnDj3BVUpMVU+2Qz1fJDRfRq33DnPzCMNoP015mVdKqIvhGdRkJ/3GDP56LDlHLEo5TDVNtnGtzYQfANao62kQOEPnP1WPVvgzK5g+NKXmX02bu/dlOxxNhfNedhT+RqJhl7xdcvKfk0MQAd4sqI56ulZphKKq0BqkuHHI3fnH3989zDFnIjIDiZbanGqjaSAoPPzcij8FP5g6fPEc4M9cYvUJMrwpTc1OXPwqrr5yR5n05Q5pU71VyQabmbyzb5V5XNIAmh/29YufTbiez8KzwlCPtW8rc8NoVrDEm4bMy3VzkuMKYLv1dU3t5qZkQSFPxCGb9iQmdOcuE/N9Wfo8M+z6WVDaxrOTPYw35gy+3um4XkEFfbMF7s+f/mCk0kCaH/f+vyYX6nJ6tB0frWzckYUnR+aDVmGbmeWpdommzFFGNZKNRWPb6NQ+INh69vN15rZZxk2/Cdn7qb+NfXHJnOM+apuS27vM011HYmG+KRlFnUJd2/+8oWHkgbQvubPn+8ysiJfFA3RzU49uTZz9PRDQvFSuRqcckyFMUVY5io3sabwd70hqxouUDO+ros9rFKWFXX2wEGP1e2f1HHGn96Y1c2KRfRtQg1x6RfrZb5fNejhW/JJA2hfW+qWvC5qF4VmPTDJjTj/bpl8cbegv1YX4Wpw6u1PhDFFSKaqvEcKFP4utf+q+rEm7nqGCx9T8gbEYlKV/9gLSd2k6c1T5/5NPJsmnraQapjPXPbp5paW+4dvWJRJGED7alpbdY+I3haejY6Nyfnbq1cFftlKZG5idqUYp5sJAaFYJ43CT+HvQgNr6vomxO4XsyyGCx/f8WxkVqzxrmQfz7Z5ytynPJHzTJUbmISYmox785WtpSQBdEDpz+7xNRN5NTTrgWcX54wuLgrya2weMvhdZlaKiQpjinDsodXxgSOFv2uUmEXU7C4125+hwl62/ikLV9Un/Xi296bMWeSZ/JBAw1767Uv5lWXfJwmgnT19x/aI551jon5o1gMnN+WPOWVQYF/g8mtbxZRH86XUlsQo/AgH5zFXKfxd44mahsvV5BSGCft0ghX75uBV9Unf72FT8ZxfiKd3kGjIz2EqP++zbMFMkgDa1461Sx9X1V+E6OzQtzWedce8efOCu/dRCmJqUcYT4SiEqm+SAoW/0w1Z1TDTzH2XIULbSr+7fvCq+pOSPc5mHXKhU/0jiYZ4u2Wm4vzb+laVjyUNoH0d3XvMfDN9JjTnBpUTr1rc8KMAr1jcNDaFRMS9QwoIA6fyD1Kg8HeqYTV1hzl1NzM8aHvJk6io3Hvgo88l9zimwsLWhBedbqKvkGqo5ZjZ0j5VtwwmCqD91NbOT0T8zLNNpSk0L9rksu6jpx4fyHOX2N+ZVakj3uIxnggFP2IUfgp/58l/7IXucZPF6qw7w4OkONc7HverejyxoU8yh2ksvODdeCRapMojk8LMxAaJtFbKQ7fmkgbQfnY8f99Lnsg3w/J6VSzi+3Znz5Fn9Q7eect7nRmVIuccM/vU6Kw3SAJhEG3lCj+FvxNlxxpvVrPDGBq0zwnXHdyjueW+sXV1GUmW/o2e6OlhukEV9jghxvSJtdyR7JMcAPzXGrmuaoGIPhCa0q+2f0K2Lwja6/I9n8KfIlT07Y0VFTGSQBg09c96jRQo/J1i4Kr675sZN9dCe5f+E9/arn9I9jjvFs1+0PP0GyQa+gkx7bfVZVcSBNDOBSfTZptJmG78NDN71NQvBytErvCnzKlGlLFEeNRWNKrwGEkKfwcburruVBX5GUOCjjnzuguHPFJ/abKH2TRl9vWqcg2Bhnzhc/LtPsvKLyQJoP001le9FzX5kplZWF6zOv83uYfNGBGU15OIykvMpJTBWCJUnMrLpEDh7zAHPtIwzPl2l5rja7boyIXsl4NWNUxN9jgnTel9qVNZQaLhZuL+kL+sdDxJAO1n+4aqh8TT34Wm8KtmaUbibjm2JDsIryeemfVSmD4wwcfx/0wGCBel8FP4O8awmleyYuruE5F8hgMduozt/kDJ7ui3qmF0Msep0NP9rV7uGSK6gVRDPB+cZDiT+/pW3nQwaQDtp1/v/P81lT+F5fWa2BG5jc2/DcSLebKiWYSv9acC5wmFHyHbGMnzhJCaol39AmKy6feeGc/HRmeV/rxMTyqH1Ww45rXxR7zV5gMVnrM9Y/lNRXE/9pSY9CfZsM4H6e00tqzHigXHbp80azOJAMl7rfaWloyjis/OiNnTqtItJBvd2dkjpz3UvH7JvV3+AYTa8yqyf9eujTo4b1TRrDDOv4STIzQAr6ObZjzfwnKAEDGTjUF470R8Oy93ZNEJIc3wUxT+/zJoVd2X1dn5vMXQqZwM9aVliTzx+oly3NDmth7m7cnnv9p7xcLpmkjUiIVkU4s9rM5ycDTh7htbVzqh/ui5cQIBkhdvqFwXHVn8fRX7TVhes6euPOvwmc+0PH9/V9+tukFEJnbpK1A53EzKwzj3VINwWtHY4EMyN25by1qA8Ihk2AYLwHMlVOTssGaoQT2/ddUP7l9Tf6wKNz9DV52M3TEDm9++2cySem9umXThE+rJBSQa9glhJ776VvJPcgDwbzvXLb3GxB4O0TrQKxKN31VQMK9LL4ZExHuW2RP2PYZs4JF8CJuxeWP/YqLNJJF6uqTw939y/YBMJ/eKWSZDgC6b/GanD1pdPz/Z42wqnHunU7mMRMPe+e3C3lVl3yUJoH2oqmVHW88TsxD9uYwd9/Tm+v/r2sIfrWf2hHx/oY4xROjU1s5PqDk+cKTwJ6+gxqIZO1vuMXGDiR9d/gZw9uOBq+rOSvY4W4vm/tSp3k2ioa/9v+hZXTqdHID2senZh//hvMjsML1mNfle7vDik7rq529bf//LZvImsyfEZxKLPEYKCOXc9fQZUqDwJ+2vrv4qMSkgegTmTWB646DahuOSPU7P3IzzRfVJEg0vNfEiTm/vW71gDGkA7aN53dL7ndmNoVkHVDzz7HY5sqRfFy5Gtcyc8MrwlPFDKDlxT5EChT8pQ2sazjSxbxI7Ara8dRPfHjjwkYZhyRzltfHnt7Rm63RTfY1MQ8ws15xfmb9y4SDCANqp9OfnfENM/hqi0j8w229O+j4vbV6GPG81syakpxCR17atXfIqSSCMciMxPqyi8CdT9teO8J1bQOQI5ObOXP+Y+lX5j73QPZnjNJ08++0Mz4pVdAephrnzy2Br9ZcOrCvNIQ2gHdRWNHp+5GwTSYRog1SYfWTxJV3yw13GMjMzJk4YNxRaRQgIq03PPvwPUX2RJCj8++ygurqeZvHFKpZL5Ahuy5MR3WJNd5eYRZI5zDuFc9er6Jkm6hNqqFv/2Ja35LauusIHpJodzy95SlR/GqpNktNf5IwqOqqzf27z+vv/LqLc+C2EfE+WkALCTJ08QgoU/n3cM5u2bpfbzezTxI3AL3LmCh+vqf91ssd5r3h2tXr2LRIN+3yQmfnVC64gCaB9TDk06+di9sfQrAFimWpytxSU5HX6Bs2T+5gxIWO2eURkIH+OgXCXQzM+tKLw75vBqxsuE7MiokZ4Sp59Y79HGs5N9jibp8z9nXl6HYmGnHPf7bOs7EsEASSvoqLCj2q3c8VC9WdPB+dubvl9Z//QzObs2/imWMj6vsrt9fVlcZJAmB2cNahGRLaRBIV/78r+qrpCMZ5PjrC9KzQeybC17XGoUTkHX2KqKwk15Js4J6V9ly0YRxJA8nY/dk714pCtAud2H1V8bmf+xM0vVbxhYg8yY8IjnuEtJAWEXX19WdyZPEASFP5PtP+j6w4S1dvVnEfMCNe+Tn7xxrix69rjULXjxyd6d7MSVX2eYMNLxTJ9c/f3WLGAP00C2sHO9UtvUZGKML1mZ/b77oefdnCn/kyJXM1sCcvWQWriDZXrSAIpMZ+jehMpUPg/1ti6uhwXiy0W53oTMcLV7HRDzwHZP2/PQ7586txtEYkWmch7BBziqWGWH024qmE1N/UiDSB5Eekx19T+HqKXnOdHW+8aXlKS2Vk/sHX9kofNpI7ZEny+RC4nBaSK5meXrhHTv5AEhf8jvb1dykxsFPEiTEw9JyIXbjziiFh7H/udogtelqjMMNEYSYd5ktihO5ri9xXU1EQJA0jOtvV3btGEd16YHj+nImP/9mJLp97I09fI95ktQd8/yCOt65c8TBJIFapqqsI3jCj8eza4pv4bZnY20SJ0J2yxq9846einOur4WybPfcw8mUXSoS/9J63d+dLvCQJIXtPGylXqeb8O02t2zn2z+4hphZ3183Zf5Re5g9kS1FOCtfgR7yKSQKppzM26SVXeIQkK/wcMrK0/wcz9ilgRNqr6lzezB/y4o3/O1ilzblPV/yPxkC+czmb3rSr9NkkAyRt2aNYPndhzITpfqKl/c87YGQM762fujGRfImabmS0BPB948tPWZ5fy1Weknicrms28nxIEhf9f8h9rGOT5bpGa8FVXhIqpWkIis+S4oc2d8fPemzL7J6LhulkVPswXuTK/ekExSQDJ2VhREfMj0bNNtDk05w2RfhKP3zZv3rzOuTHxcxXvqnnfZbYEi4puODRj8FUkgVR1dJ8xN4gJN56m8O++SV9GZtxViMl+RIrQnbBNS986aUxtp/08Vduc3/s8FX2G9MM8b8Qz59/Zr3LhaNIAkhN7bslGFf1uyNaAk3+9uO5/O+vn7fjT0htN9S5mS0CYbLd49Eyeu49UVls7P+FLZJaJ+qSR5oX/H9vlGs/Z/xAnQvgOeL2lW27nbzKPO7252cuYKqqvMwih3vDl+epX5qwoHUgYQHKa1i+9zokuD9Nrdqbzs0YUHdcpHzCo2s7BB5wvKo8yW7p46VeJJzRyWtMLi/9EGkh1LX9a8kd18nOSSOPCv9+qui96Zl8hSoSRamTups8dtqMrfvbOKee/FbFIsag0MhJh3vnZ0Oy4LpEnFmUTBpCcZpPzVeTd0JxDRKKeyl09R0/rnMd1Lr+2tSkne7qo/ZnZ0oWczOWu/Egnl37+qPkicj9JpGHhH1T73Jio2g3EiHCWfe/Wv594VJdeTXq3+MK1+v/YuxfwqMp73+P//1qTmZBEMIAQpEr1bBVBVCBYOWoxsd4gaKsG71gUQq29HG89T921km7dbrtPj9219iioXEStZqtoAnS7VUR78UJAiOAFiwJCkEtIINfJrPd/HhPUiqiYZJJZyffzPD6JD2Fmze99Z2X9mPWu5fmXmIpjRELc+cXGZFdVzzMzJQ2gHd4o/TBwclWofpeIDAlcMLPTnvDlkqqIxc424QyxLhlv826qf6NsNkmgJykuLnZ1mb0uC9tZWGhn4e/9t9V9JQieMCd8qoUQFjT9cFev9GtTYVt2jJ9aaqbXMSohPwh0dkHfhTNvJQmgfRpWl5WK03vD9TtFCrNGTCzqrOerqXhiXSxqJ/NJfyeOsZmJ6k9q33j6dtJAj/RySUPB0PSJYds/o42F/xYz74CGhofV3DeJEKEsZ553za6xw1PmFkfVE4v+w3k6i5EJ+bwyualf6azJJAG0T+90u05U3w7TNjuR30aPP3dYZz3fzvKyDVIbPUVE/8yMSXLZV6lznl1at6r0LtJAT1ZSUhLUrS79gTj5UZjurELhb4P7l5T/i5idSXwI6S/uxzfljXo81bbruIwjfqgizzFC4ebEZmUvvvdkkgDarrK8rD5i/qWmEporoKtYr4gLHh0y7or0znrOunVPbh0/NP1UES3mKtrJ2qfrioRGRjWuWsQdEoCP9z2ry+5OSPNIE3mVNLph4T9kybJzncjPiQ5hpKpViYz0a1Jx25bm5SWysqIXhO1TLXzuoD8qCXlyQNkDh5MG0HY1FQvKPefdEqr3v8kx26uq7uzM52z5xK2idEYkkjjRRJYwczqIWVWgesNhQ9NPjK9cwNIJYC/xij+9feN5o8cGnl4uJn8nkW5S+A976fUjndk85cJUCKmEyLVbTxzxYapu3/q8KdWJiFdgqjsYrTCXfukfSKLs8P++tw9pAG13/fkj7xCRF0PWFH/Q69hzzuvsZ921YvGy+oqyfFP/LBN7tmXNOb7+6KlsEqe/isYyDm9cVfqbNSUlcVIB9q24uNg1riydPzR28NEmOoUlRiEv/MOWrM6Kx4MnxaQ3sSGkJWzxlvzceam+nbvOmvqur955JspBRpgPGs2O3tmkJeOWLImQBtD2g8loVC4XkZpQHVyZuy97dMGhXfHc9aue+q/6ioWnuyB2mHn6SxN5ldP9v2p/LZXqZL4f6PgJR/UaUre69Jad5SU1JAPsn/Lymc31FaVz6ipKT/ESsSPN3Awzfc2Mu1Clgv0+EK1xDQ+I2DAiQyh/mXu62/zY9LBs7/YJU1/su3DmdHHCrX9CTM1Or6hde5eIXE0aQNvsLC/bkD6s4Ie+Lw+FaLOz43F9uLCwcFxJSUmXlO3GN59YLyL/0vLfCZf2PqBp9ylBkMgV1aEm3lGqdqSaZPawYu9EZaOJvKVib3virY5L89L4G3/6ZCldyRrec0B77H7z8bUiUtzy3wmX9o7Fd30rLZBRTmyEiByhooeLWH+S6sTj0f35oYOfL79Rzf2auBBanl69KS/3nrBtdnbZvbepyU0MYLgF6l1bUzDttyQRxoJgmnH8OUWpuG2uQZ5peqf0vZ4yFpnDz7nIRSxUy2TSI7a45Wr6qWpcYVaf6nh/8+L9E0FafxPJ8NSleaZRUU1LiKWFKW8/oc55EneBa1bfj4sk4r7Kzrgf3R63yPbCI6Sqq/4BJunHC6ML+zQ3NxSm0N7z7dpVC18Kzf7l6InDNc3GpsxctujzNRVPrOuu+/NhhYXRynUNOS7h9UtI4kCX8LK8iGR8tO8JTHzPiS+irWeie1++lDzwvqLPfuVSdE+/fCy+/O+ba/1z51maJ3pnKuVcu6rUU9WvXos/+PnyfDN7RsV8Dv0QSipLP8jLzftowoexbPRdOPM/1eQ8BjLEpVFbTmk7Z2fB9IWkAQAA0L0MGXdF+vaqHQ2pWPi/dA3/wS9WHGJqf6TsI7Rd35OGuPpTw1j2pfWuApaeI5eLajmjGeJ5aOJ5po8MWHTvCNIAAADoXtZn9E7ZrvHFhX/t2pgmmh5XZwcxhAhx1bp5W96od8P8Cipzp9drzD9HVTYxnuFlYgc0B1KW+dysgaQBAADQfQzL2hK+wv+NDTW/F7MxDB9CW/XFe3XsqaO7xbrpHadftVk9f6Ko1jGyYZ6Tcmi0wT01ZMnsdNIAAADoHnqtyw5X4f/GkmVTTWwqQ4fwNiuNq/pXlmj3uRXR9vFTVwSeXbZnPTjCOjVNvlVTG59jZkoaAAAA4ZeVNSg8hf8bS1eMMae/Z9gQZiZ628b841d3t9dVM376Al/kZ4xwuHkiF/ZfNLOYJAAAAMJvwIA14Sj8OS+tOMhc4nERF2PYEFYqumpQb7u9u76+7QXTf2OqDzDS4WZObu5XNvNSkgAAAAi3YcOGpX7hLzTz/ebgj+LkEIYMoS1RooGnemV5bm5zd36dh+fYD0T1BUY87PPV7h9QNvN/kgQAAEB4zZgxI/UL/19fKP83MctnuBBqqv9nQ/7obn8Lu/Lc6c2JiHe+qKxl0EPd+GMJkQV9npl1GGEAAACEtYKk3i3AP96mlsI/+LllheLsBoYKIX+rvZOmfWf0lFe766ypVc2qBaayk7EPc+m3g/y4K5NF83sTBgAAANp9eKnyydnOXs5LK4axHhjhn9RqnidXrc87rLEnve7dE4re8VTON0+amQVhnsAyrK+rf6zQHvMJAwAAIISHc2ap9Cl//ONvIn48eFLEshiiUJfd+Sq2vCdn4Itu2pg3+s898bXvmDB9Sd+Fs64Wcffxbgj1b4kzny/b+R8i8iPCAAAACJuWU+hT4rbL6qzpk+8HP/eaMTgh7giiS07KH316d7rfPNqm78JZd4hz3LIv9L8rvJ9UFUy7iyAAAADCI2PExISK+SnSETfWV5QeKvu6Dz/CVAx0c3p62kWUfXzkx+On/lxUnyKJcDOzOw9aNPNskgAAAAjXUVzK1ESRuo+/p/CHlafNvvmF6046bith4CPFqq4qmn6pqb5OGuGlYr5z8sfssvuPIQ0AAIDwHMSlyqaYWS2FP+xMbthw2si/EgQ+44zJdY2eThSVSsII8dvbrLdoojTzmXkDSAMAACAMB3ApdGs+T2oo/CHmVB/blJ/7O5LAvjSMn/aBepFzRKSeNMJLnXwz1tSwYMiS2emkAQAAkOqFP3VO6fdMqj7+PsLIhGweqb6Vrb2u4uNbfJkd469a1mfhzMmeSYmaKYmE1tiauuYHROQSogAAACnv7B/HhtTvajn2XN9U3/J1UHNDy9fKD7I/PSYd2tjyfb/E5pavO5q/2fI1O4h/8jMused7l9nytSaz+dO/H7R+n+USLV9rg14tXzN3JT75mbqM1u8zeqXveZxP/6yX293yvdW2blNDetDyNT0WfPoc1vp9Q3205Wss+umfNTa4PT+f1vo4UaeJpkTqdEannxR+rtIfprIvWuei/glbThm5hjSwP7LLZv5vNfs3kgg353kzqidMKyYJAACQyjJHFFSLSB+S6GpaXFdROkM4pT9cPJFplH18HTsLiu4wlbkkEfL3vnMzsstmXkQSAAAgxTkiSIG673TTP3RIhIGp/u6D03IfIQl8XYMOyy4y1ZdIIuQ7bpXZByyadSJJAACAFC4tFP4U4HzZSOEP15H+y4N6yw0EgbZYM3xSvFd67Hui8nfSCPOe29LTnHsqZ+F9QwgDAACkZm0xCn8KiKR5ayn8IWGebmvQaGF5bm4zaaCtNn/nih3xNCkw0WrSCPMOQQY0mivr9+f7DyAMAACQeo1fuD5clx8uavzMw9Pep/CHYbDUcxHxL6nKO/YD0kB71Z45/S1VKTTVBGmEl2d2TFAdPFpoj/mkAQAAUqq/ONbwp8AoVJSUlAQU/jAMlcjNG/JGPksS6ChVBUXP+qLXkEToS//Zz5TVfI8kAABASvUXZQ1/V1OR8n/8f+7Dn7IjpQs35426vT03UB84b2WmBs0vmqdHEuhHeyBb3i+j1+lrJg2P9+QYthdMm3lg6cyjPLHrmBQhLv3qvUUKAAAgxQ64K0XkYHLoOoG6Fyj8qX8k/54fiV6uqu1aA2NB8/0qNkodS2n2+HZVfcPdIjKtpwfx04JpN961cNaRYlbAtAghldqfTLhyTbFcRRYAACB1ymaTFkai9ldRySGNzmcmzq+LPfeZakksKdf2m3xfLthwyrE72/MoA+Ysu94Tu5A8P/cumJozt/yHPT2GYlVXlXngxaa6ikkRysb/ajGnzAEAgBTT9E7pe5YmZ4nJLtLogiYp8mLduie3UvhTmPPsmg3fzl3enscYOHdZnorcQZpf0Pmd/fbgOa+d1OODyJtUmx6ziaK6hVkRsrqv8gopAACAVFS/omyl+O67ZtJEGp18jOh5s/fxjwBImbIvOqcyL/f+9jxG9iMVh3hOHlUzruD9RW8EsbTA9PG+c18f3NOzqDx9+gYR71xRbWBmhEcgSuEHAAApq27loiWeepebcdX+zmImlbsHD3mUwp+yLdRbWZkxsH2nmi9aG4s1Nj1uYgcR6FeW/oERC574KLOenkVVwdRXPZXvWzuvGYHOE/fdq6QAAABSWW3F0yWq3k9JopP6jcltsviuJgp/ag5PTVzsfBl7SLs+Zc3ZuutuERtDnvvHM3dCzraae0hCZPuEosdU5WaSSH2mur7+rOmVJAEAAFJdXcXTvxeVfyWJ5HJir48f1mufvYbC3/UH72bqTd6Wn/v39jzOoDnlRWKOS3Z/7XeHfX/QnGU/IQiRqglFt4nKfJJI8X2GsH4fAACEqPSvKvtnZ/YASSSrT0pdEIleUlJSElD4U5HKHZvzRz3dnocYPG/Zt0zsLsJsY+dX+03/eSvGkYRIlXfIVKf6F5JI4V0GF+wDAAAhc0K/3OkmWkYSSegy4qbFVzz55hf9OYW/C5nokpNOHf2L9jzG4fNWDgicPi5mURJtY4FyEkkLgpLsRyoO6fFhjB/flPAi3zPR95gZqSmiHoUfAACEytKlxYk+UbtQRP9GGh1Z9uX2xlWLHvmyn6Hwd1nL1M3p6WkXlagGbX2IcUssUhfEHxNzgwm0fUzsoPSmpieHzH4vvadnUTv+ym3NfqRAPKlhZqTYPFVNbMvuvZwkAABA2FSWl9XXZaYXiMmbpNEhBWZWQ0XZTV/1YxT+Ljlol4SJTVp30nFb2/M4b7+/4mIV4VT0jhoXs9Fx3TGLJFpK/xrfvAtN2v4PUuh4KrJSxk7iFooAACCcXi6pisbkLFPZRBjtOCZ0Mn/80b2u3p+fpfB3SeH3btycP6bd66Rjkl0i4q0l0Q4t/ZflzHntWpIQ2VYw7b/MEy5omFo4nR8AAITazvKyDRpPO0tUq0mjLWXf+7+73yid/EUX6aPwd/0QlVTmjf5tRzzS+imHNfriirh/egeXftF/HzyvPJ8kRKonFP3BVH5HEimy9zCl8AMAgNCre+vJN1TcOWbWSBr7bWfg2WW1q5++Xr9G/6Pwd2aRVHm7MZbVobfO2zRlzAsqcj/pdmSpMt+ZPZrz0PIhpCHynQnZ1znVxSTR9eKevUwKAACgO6hdtfAlz9eLWUL6FR3yIyKPpkcaj2lcufChr/v3KfydNVCidb6knb/j5KG7O/qxY+bfaCpbSLkDx8tZf2l2CwaVLsvo6VmU6KSg2su4yKm+wczo0n1I9a7x01jCAwAAuk/pX1m2wDy5hiT2eewXN9VHNPBG1FeUXbRjxbOb2/I4FP7OGjCVoo35x69OxmOvnzKyWsX/ESl39KDZ8bZD7yMIERl/2a509QpEZSthdA1VeUVZvgMAALqZhpWl94poMUm0dMZmU31enVeUJgfk1K8qvaTuzdJ2dUgKf6fwfl+Zn/twMp9hy/dHPS6qC8i6o9917uKc2eU3EoTIlglT11sk8l3xlLVWXVH4uWAfAADopuoqSmeI03t7WrkX1bdF5Anz9Je+kzPrP8zOrl9Velrt6qdn1VQ8vLMjnifC9EryQbrqK70Hpl/fGfedaI5510Sagnw16U3yHflmtNsHPbjs9crLc/+7p2ex86yr/tZ/4awrndjDzIzO5XnC+n0AANBt3XDBqB/e+fTyp1zCywx/CXTmO8/FLUho1GvWwOKB8xvSo0FdQ63sHjjggOoppx1RU1xc7JK+KYOfe41TRJNWFHW7RGKjNn97xMbOes6cua9NFyf3kH6Hv1WqotHomA2XHruOLEQOXDjrFs+5GSTReWJZclBl3vTtJAEAAID9xSn9SSv7nvM9uaQzy/5HKifnzlTRlxiBDh/Rvk3x+IKB81ZmkoVI9YRpxU71jyTRSVTfpewDAACAwp8qwZrdsvHUzj8FXFUtnhadJuI1MQodnK3YCA2aZ5NEqz6ZaVNEldPMO2fysX4fAAAAFP5UYOot2pg/+rauev4dlx37tnh2KyORlNEtHDin/OfkILI+b0pjUzT9XFNdTxrJnnas3wcAAACFPxXK/vuRtLTLuvr2WYOHyx2mwn3Tk1O+bs2ZvfwsghCpO2PyVhG/QEV3k0byJHw+4QcAAACFv6vjbIqIXLDhlGN3dvWWlOfmNkc8nWriOcalY6k4T9Q9ctCDy/+JNER2Flz1hufLhSYakEZSJlzTNw49cCVBAAAAgMLftQfmP96QP7o8VTZn0+TcV1TsLgYmCcwO9AO3YNhjq7MIQ2Tb+KLFqnotSSRlx7JizfBJcXIAAAAAhb/Ljsl17qb80bNSbbP6Zvb6hQprrJNU+ofvrGuYa2ZKGCJVBdPuEtU/kEQH71rEWL8PAAAACn/XHZF7Kzf1Gnh1Km7amknDaxOedzWDlKTOL3bewDnlvyCJViMyj/ipiTxDEh3HibJ+HwAAABT+Lmr7NXHVC2TsIQ2puoXbrhi1WEQfZqySNANUig+eW15AEiJL8/IS2ekySVTWkEYHFf4ohR8AAAAU/k5nquZ5csW2vFHvpvq21mb6/0tUdjBqSSj8Zho4m99v/qqjSENk3enTa4KoV2Ai20mjvZNLt9WcMe09ggAAAACFv/OPxn+9MS/3qTBsae2kkdvEfC6qlqyZINYnmogv6Dt/bW/SEPmopEZ8/7ui0kQa7WCs3wcAAACFv/MLnnovnJQ36p/DtM1bpox6UFRZX520bmZD0xLVD3IRv1bbxk/9ixNvKkm0Zw/N6fwAAACg8Hd2298cz4heVKLhu+94zPzpolrHICZpapicc/Dc8hkk0aq6YNp8E72VJNrIhMIPAAAACn+nHX+rJDyVC7eeOOLDMG7/+ikj3xexmxnJ5HEiNw+at+xckmhVVTDtl6JSQhJfd1+jdmDMXiMJAAAAUPg7iYr8bGNe7p/D/BpOycj9nYhSJJI1R8zUBfJgzrzlR5OGiKpaVb/sK1T1VdL4Ovsae3Pd6dNrSAIAAAAU/k5g6v3npvwxd4b9dZRM0sD3dKp5kmBUk1bWDhDnFhz+2LI+pCEiYyc1NGjauaK6kTD2c3/D6fwAAACg8HdW2Ze3m6KZV3aX17PpitGr1PTfGdmkNrYj6+vloVvMeJ+JSP2EKVt88yeKSi1p7MfOmQv2AQAAgMLfCb1NtM6XtPN3nDx0d3d6XTHr9ytRfYcRTmrpn3DP3OW/IohW2yZetdKpXmwqjjS+XEL4hB8AAAAU/uR3NpWijfnHr+5ur2v9lMMaE55fZKrGKCd1Bt2UM2f5+eTQqnpCUZmq3kASX6r+jPEHVhADAAAAKPzJpHp3ZX7uw9315W2fPHKpqtzHQCdxCpmpqc05ZN7KY0ijVdWEojudykyS2DdTWVaikwKSAAAAAIU/aV1fX+kzsNd13f11xpz/M1OtZMSTOJecy4q75gWHPrQqmzRaHZd55DUq8hxJ7KPwc8E+AAAAUPiTeMCtut1FYoVrhg+Pd/fXun7KyGr1vB8x6kku/Wb/ozkef4SL+LVampeXyMqKXiAqTaSx1/6HC/YBAACAwp+ssu85E7l087dH9JhbiG2ZPOoJVX2S0U/y3BI78//NWf6vJNGqqr55gJjESOKzfIu9TAoAAACg8CclFJtRmZ/7TE973YHprxn95FORGw+e+2Y/khCJmJ1GCnvPD91cVXDFJpIAAAAAhb/jy9jijXmjb+2Rk8HXg5kBnTDH1J7dfMXRO0iiJQ0K/16cGp/uAwAAgMLf0Ux1/a6MjMu0h96mTs0dwSzojEKn95CCyJ5rGeSRxOfeiazfBwAAAIW/Y4+xNe75fuGuscOremoEZvJPTIQkZyy6+ehDR5WShMjdC+8bqWZ9SeKzfPX4hB8AAAAU/g7t+6LXfjBu5Gs9uoya8Ql/st9wnty/NE8TJCESCOv3P/ceFA22p0XLSQIAAAAU/g5r+/rwB/mj/0AQSuFPZplTDRqjsVkk8YnvEMHeb0F7Q86YXEcQAAAAoPB3TARrEv3Sinp6CgPnrcxUMS7al9TGL4t2XtxzbvX4pRYtiqnIyQSx9xQR1u8DAACAwt8hB9fq1UYiesGHxx3X4z9Rcxqwfj/JAl+4WN8e/YJNY8WsF0nstU/yWL8PAAAACn/HvHizovXjRr3JNBDxAy7Yl0wquv6ay0f/iSRaOeV0/n0JxOcTfgAAAFD429/A9O4PTst9hCmwJw5uyZdUpjarWNWRxJ75xgX79rFL0l3Xnz3lLZIAAAAAhb9dZcN7tc/AXtcx/J8KhCv0J63se5KIWcb9JLHHovm9zWQMQew9Uew1/lEIAAAAFP722RGNWeGa4cPjDP+nfK7Qn8zGv2D9lOFbCKJVP2kcp2I+SXyW4/77AAAAoPC3o3epmvr+5etOzt3A0O9dNviEP3nzzruXFP5hrrmA9fv72hl7yvp9AAAAUPjbXrzk1g9OHbWYYf+sYY+tzlKTHJJIxpzTdz+cfPxzJPEpNWX9/j40RqIUfgAAAFD421j2ny06dfQMhvzzquviXKE/eYX/XlU1kmiVsXB2jogNJ4m95okn79edMXkrSQAAAKAjReyArP494YUemOl2c0GsfRs0IlhdubpnzIPOdtShQ2tocZ8ak/HN7WuDDcy1vWyO+82kAAAAgI72/wMAAP//z9gT62pxal8AAAAASUVORK5CYII=;" parent="6BdkaVAcVr7eQR7Y4JyL-1" vertex="1">
                    <mxGeometry x="13.630000000000003" y="5" width="92.73" height="30" as="geometry"/>
                </mxCell>
                <mxCell id="6BdkaVAcVr7eQR7Y4JyL-5" value="" style="html=1;points=[];perimeter=orthogonalPerimeter;labelBackgroundColor=none;" parent="6BdkaVAcVr7eQR7Y4JyL-1" vertex="1">
                    <mxGeometry x="55" y="69" width="10" height="131" as="geometry"/>
                </mxCell>
                <mxCell id="6BdkaVAcVr7eQR7Y4JyL-6" value="REST API" style="html=1;verticalAlign=bottom;startArrow=oval;endArrow=block;startSize=8;labelBackgroundColor=none;" parent="6BdkaVAcVr7eQR7Y4JyL-1" target="6BdkaVAcVr7eQR7Y4JyL-5" edge="1">
                    <mxGeometry x="-0.0476" relative="1" as="geometry">
                        <mxPoint x="-50" y="69" as="sourcePoint"/>
                        <mxPoint as="offset"/>
                    </mxGeometry>
                </mxCell>
                <mxCell id="6BdkaVAcVr7eQR7Y4JyL-7" value="" style="html=1;points=[];perimeter=orthogonalPerimeter;labelBackgroundColor=none;" parent="6BdkaVAcVr7eQR7Y4JyL-1" vertex="1">
                    <mxGeometry x="60" y="109" width="10" height="71" as="geometry"/>
                </mxCell>
                <mxCell id="6BdkaVAcVr7eQR7Y4JyL-8" value="soap4kong" style="edgeStyle=orthogonalEdgeStyle;html=1;align=left;spacingLeft=2;endArrow=block;rounded=0;entryX=1;entryY=0;exitX=1.023;exitY=0.167;exitDx=0;exitDy=0;exitPerimeter=0;labelBackgroundColor=none;" parent="6BdkaVAcVr7eQR7Y4JyL-1" target="6BdkaVAcVr7eQR7Y4JyL-7" edge="1">
                    <mxGeometry relative="1" as="geometry">
                        <mxPoint x="65.23000000000002" y="89.08000000000004" as="sourcePoint"/>
                        <Array as="points">
                            <mxPoint x="95" y="89"/>
                            <mxPoint x="95" y="109"/>
                        </Array>
                    </mxGeometry>
                </mxCell>
                <mxCell id="6BdkaVAcVr7eQR7Y4JyL-2" value="" style="shape=umlLifeline;perimeter=lifelinePerimeter;whiteSpace=wrap;html=1;container=1;collapsible=0;recursiveResize=0;outlineConnect=0;labelBackgroundColor=none;" parent="1" vertex="1">
                    <mxGeometry x="200" y="40" width="120" height="220" as="geometry"/>
                </mxCell>
                <mxCell id="6BdkaVAcVr7eQR7Y4JyL-9" value="" style="html=1;points=[];perimeter=orthogonalPerimeter;labelBackgroundColor=none;" parent="6BdkaVAcVr7eQR7Y4JyL-2" vertex="1">
                    <mxGeometry x="55" y="128.86" width="10" height="41" as="geometry"/>
                </mxCell>
                <mxCell id="5" value="&lt;font style=&quot;color: rgb(90 , 184 , 237) ; font-size: 24px&quot;&gt;{&amp;nbsp; &amp;nbsp; &amp;nbsp; &amp;nbsp; &amp;nbsp; &amp;nbsp;}&lt;/font&gt;" style="text;html=1;align=center;verticalAlign=middle;resizable=0;points=[];autosize=1;strokeColor=none;" vertex="1" parent="6BdkaVAcVr7eQR7Y4JyL-2">
                    <mxGeometry x="10" y="8" width="100" height="20" as="geometry"/>
                </mxCell>
                <mxCell id="6BdkaVAcVr7eQR7Y4JyL-10" value="SOAP Request" style="html=1;verticalAlign=bottom;endArrow=block;entryX=0;entryY=0;exitX=1.029;exitY=0.293;exitDx=0;exitDy=0;exitPerimeter=0;labelBackgroundColor=none;" parent="1" target="6BdkaVAcVr7eQR7Y4JyL-9" edge="1">
                    <mxGeometry relative="1" as="geometry">
                        <mxPoint x="110.28999999999996" y="169.88" as="sourcePoint"/>
                    </mxGeometry>
                </mxCell>
                <mxCell id="6BdkaVAcVr7eQR7Y4JyL-11" value="SOAP Response" style="html=1;verticalAlign=bottom;endArrow=open;dashed=1;endSize=8;exitX=0.012;exitY=1.001;labelBackgroundColor=none;entryX=1.094;entryY=0.874;entryDx=0;entryDy=0;entryPerimeter=0;exitDx=0;exitDy=0;exitPerimeter=0;" parent="1" source="6BdkaVAcVr7eQR7Y4JyL-9" edge="1">
                    <mxGeometry relative="1" as="geometry">
                        <mxPoint x="110.94000000000005" y="209.654" as="targetPoint"/>
                    </mxGeometry>
                </mxCell>
                <mxCell id="6BdkaVAcVr7eQR7Y4JyL-13" value="JSON" style="html=1;verticalAlign=bottom;endArrow=open;dashed=1;endSize=8;exitX=-0.011;exitY=1;exitDx=0;exitDy=0;exitPerimeter=0;labelBackgroundColor=none;" parent="1" source="6BdkaVAcVr7eQR7Y4JyL-5" edge="1">
                    <mxGeometry x="-0.1441" relative="1" as="geometry">
                        <mxPoint x="70" y="349" as="sourcePoint"/>
                        <mxPoint x="-20" y="240" as="targetPoint"/>
                        <mxPoint as="offset"/>
                    </mxGeometry>
                </mxCell>
                <mxCell id="6" value="&lt;font style=&quot;font-size: 24px&quot;&gt;SOAP&lt;/font&gt;" style="text;html=1;align=center;verticalAlign=middle;resizable=0;points=[];autosize=1;strokeColor=none;" vertex="1" parent="1">
                    <mxGeometry x="221" y="50" width="80" height="20" as="geometry"/>
                </mxCell>
            </root>
        </mxGraphModel>
    </diagram>
</mxfile>